<svg xmlns="http://www.w3.org/2000/svg" viewBox="0 0 128 128">
  <linearGradient id="pythonGradient" x1="70.252" x2="170.659" y1="1237.476" y2="1151.089" gradientTransform="translate(-65.5 -1128.5)" gradientUnits="userSpaceOnUse">
    <stop offset="0" stop-color="#5A9FD4"></stop>
    <stop offset="1" stop-color="#306998"></stop>
  </linearGradient>
  <path fill="url(#pythonGradient)" d="M63.27 0C27.94 0 29.78 16.33 29.78 16.33v16.87h33.9v5.05H19.19S0 35.36 0 70.58c0 35.23 16.71 34.15 16.71 34.15h9.95v-14.05s-.54-16.71 16.45-16.71h28.22s15.91.26 15.91-15.35V15.35S90.26 0 63.27 0z"></path>
  <linearGradient id="pythonGradient2" x1="209.474" x2="173.62" y1="1147.591" y2="1191.216" gradientTransform="translate(-65.5 -1128.5)" gradientUnits="userSpaceOnUse">
    <stop offset="0" stop-color="#FFD43B"></stop>
    <stop offset="1" stop-color="#FFE873"></stop>
  </linearGradient>
  <path fill="url(#pythonGradient2)" d="M64.73 128c35.33 0 33.49-16.33 33.49-16.33v-16.87h-33.9v-5.05h44.49s19.19.89 19.19-34.33S111.49 8.67 111.49 8.67h-9.95v14.05s.54 16.71-16.45 16.71H56.87S40.96 39.17 40.96 54.78v43.57S37.74 128 64.73 128z"></path>
</svg>
